<mxfile host="app.diagrams.net" modified="2022-06-17T04:45:22.442Z" agent="5.0 (Windows NT 10.0; Win64; x64) AppleWebKit/537.36 (KHTML, like Gecko) Chrome/102.0.5005.125 Safari/537.36" etag="RSuuIPgUV-DRqCA00scQ" version="18.1.3" type="github">
  <diagram id="9UwjdsZObZHjU-imArgC" name="Page-1">
    <mxGraphModel dx="1243" dy="669" grid="1" gridSize="10" guides="1" tooltips="1" connect="1" arrows="1" fold="1" page="1" pageScale="1" pageWidth="827" pageHeight="1169" math="0" shadow="0">
      <root>
        <mxCell id="0" />
        <mxCell id="1" parent="0" />
        <mxCell id="FclAPm72DUX-5b0igdBz-4" style="edgeStyle=orthogonalEdgeStyle;rounded=0;orthogonalLoop=1;jettySize=auto;html=1;entryX=0.5;entryY=0;entryDx=0;entryDy=0;" edge="1" parent="1" source="FclAPm72DUX-5b0igdBz-1" target="FclAPm72DUX-5b0igdBz-3">
          <mxGeometry relative="1" as="geometry" />
        </mxCell>
        <mxCell id="FclAPm72DUX-5b0igdBz-1" value="Начало" style="rounded=1;whiteSpace=wrap;html=1;" vertex="1" parent="1">
          <mxGeometry x="354" y="100" width="120" height="60" as="geometry" />
        </mxCell>
        <mxCell id="FclAPm72DUX-5b0igdBz-6" style="edgeStyle=orthogonalEdgeStyle;rounded=0;orthogonalLoop=1;jettySize=auto;html=1;" edge="1" parent="1" source="FclAPm72DUX-5b0igdBz-3" target="FclAPm72DUX-5b0igdBz-5">
          <mxGeometry relative="1" as="geometry" />
        </mxCell>
        <mxCell id="FclAPm72DUX-5b0igdBz-3" value="Ввод года" style="shape=parallelogram;perimeter=parallelogramPerimeter;whiteSpace=wrap;html=1;fixedSize=1;" vertex="1" parent="1">
          <mxGeometry x="354" y="180" width="120" height="60" as="geometry" />
        </mxCell>
        <mxCell id="FclAPm72DUX-5b0igdBz-12" style="edgeStyle=orthogonalEdgeStyle;rounded=0;orthogonalLoop=1;jettySize=auto;html=1;entryX=0.5;entryY=0;entryDx=0;entryDy=0;fontSize=14;" edge="1" parent="1" source="FclAPm72DUX-5b0igdBz-5" target="FclAPm72DUX-5b0igdBz-11">
          <mxGeometry relative="1" as="geometry" />
        </mxCell>
        <mxCell id="FclAPm72DUX-5b0igdBz-5" value="Инициализация даты с введённым годом" style="rounded=0;whiteSpace=wrap;html=1;" vertex="1" parent="1">
          <mxGeometry x="354" y="260" width="120" height="60" as="geometry" />
        </mxCell>
        <mxCell id="FclAPm72DUX-5b0igdBz-7" value="&lt;font style=&quot;font-size: 16px;&quot;&gt;Отсчёт с 1 января&lt;/font&gt;" style="text;strokeColor=none;fillColor=none;html=1;fontSize=24;fontStyle=1;verticalAlign=middle;align=center;" vertex="1" parent="1">
          <mxGeometry x="577" y="267" width="100" height="40" as="geometry" />
        </mxCell>
        <mxCell id="FclAPm72DUX-5b0igdBz-9" value="" style="endArrow=none;dashed=1;html=1;dashPattern=1 3;strokeWidth=2;rounded=0;fontSize=16;exitX=1;exitY=0.5;exitDx=0;exitDy=0;" edge="1" parent="1" source="FclAPm72DUX-5b0igdBz-5">
          <mxGeometry width="50" height="50" relative="1" as="geometry">
            <mxPoint x="390" y="350" as="sourcePoint" />
            <mxPoint x="550" y="290" as="targetPoint" />
          </mxGeometry>
        </mxCell>
        <mxCell id="FclAPm72DUX-5b0igdBz-10" value="&lt;font style=&quot;font-size: 14px;&quot;&gt;Считаем что это понедельник&lt;/font&gt;" style="text;strokeColor=none;fillColor=none;html=1;fontSize=24;fontStyle=1;verticalAlign=middle;align=center;" vertex="1" parent="1">
          <mxGeometry x="580" y="280" width="100" height="40" as="geometry" />
        </mxCell>
        <mxCell id="FclAPm72DUX-5b0igdBz-14" style="edgeStyle=orthogonalEdgeStyle;rounded=0;orthogonalLoop=1;jettySize=auto;html=1;entryX=0.5;entryY=0;entryDx=0;entryDy=0;fontSize=14;" edge="1" parent="1" source="FclAPm72DUX-5b0igdBz-11" target="FclAPm72DUX-5b0igdBz-13">
          <mxGeometry relative="1" as="geometry" />
        </mxCell>
        <mxCell id="FclAPm72DUX-5b0igdBz-11" value="Добавляем 3 дня" style="rounded=0;whiteSpace=wrap;html=1;fontSize=14;" vertex="1" parent="1">
          <mxGeometry x="354" y="340" width="120" height="60" as="geometry" />
        </mxCell>
        <mxCell id="FclAPm72DUX-5b0igdBz-16" style="edgeStyle=orthogonalEdgeStyle;rounded=0;orthogonalLoop=1;jettySize=auto;html=1;entryX=0.5;entryY=0;entryDx=0;entryDy=0;fontSize=14;" edge="1" parent="1" source="FclAPm72DUX-5b0igdBz-13" target="FclAPm72DUX-5b0igdBz-15">
          <mxGeometry relative="1" as="geometry" />
        </mxCell>
        <mxCell id="FclAPm72DUX-5b0igdBz-35" style="edgeStyle=orthogonalEdgeStyle;rounded=0;orthogonalLoop=1;jettySize=auto;html=1;entryX=0.5;entryY=0;entryDx=0;entryDy=0;fontSize=14;" edge="1" parent="1" source="FclAPm72DUX-5b0igdBz-13" target="FclAPm72DUX-5b0igdBz-32">
          <mxGeometry relative="1" as="geometry">
            <Array as="points">
              <mxPoint x="290" y="460" />
              <mxPoint x="290" y="900" />
              <mxPoint x="430" y="900" />
            </Array>
          </mxGeometry>
        </mxCell>
        <mxCell id="FclAPm72DUX-5b0igdBz-13" value="Пока текущий год" style="rhombus;whiteSpace=wrap;html=1;fontSize=14;" vertex="1" parent="1">
          <mxGeometry x="374" y="420" width="80" height="80" as="geometry" />
        </mxCell>
        <mxCell id="FclAPm72DUX-5b0igdBz-18" style="edgeStyle=orthogonalEdgeStyle;rounded=0;orthogonalLoop=1;jettySize=auto;html=1;fontSize=14;" edge="1" parent="1" source="FclAPm72DUX-5b0igdBz-15" target="FclAPm72DUX-5b0igdBz-17">
          <mxGeometry relative="1" as="geometry" />
        </mxCell>
        <mxCell id="FclAPm72DUX-5b0igdBz-15" value="Запоминаем месяц в переменную A" style="rounded=0;whiteSpace=wrap;html=1;fontSize=14;" vertex="1" parent="1">
          <mxGeometry x="481.5" y="490" width="120" height="60" as="geometry" />
        </mxCell>
        <mxCell id="FclAPm72DUX-5b0igdBz-20" style="edgeStyle=orthogonalEdgeStyle;rounded=0;orthogonalLoop=1;jettySize=auto;html=1;fontSize=14;" edge="1" parent="1" source="FclAPm72DUX-5b0igdBz-17" target="FclAPm72DUX-5b0igdBz-19">
          <mxGeometry relative="1" as="geometry" />
        </mxCell>
        <mxCell id="FclAPm72DUX-5b0igdBz-17" value="Запоминаем дату в переменную buffer" style="rounded=0;whiteSpace=wrap;html=1;fontSize=14;" vertex="1" parent="1">
          <mxGeometry x="481.5" y="570" width="120" height="60" as="geometry" />
        </mxCell>
        <mxCell id="FclAPm72DUX-5b0igdBz-22" style="edgeStyle=orthogonalEdgeStyle;rounded=0;orthogonalLoop=1;jettySize=auto;html=1;entryX=0.5;entryY=0;entryDx=0;entryDy=0;fontSize=14;" edge="1" parent="1" source="FclAPm72DUX-5b0igdBz-19" target="FclAPm72DUX-5b0igdBz-21">
          <mxGeometry relative="1" as="geometry" />
        </mxCell>
        <mxCell id="FclAPm72DUX-5b0igdBz-19" value="Добавляем 7 дней" style="rounded=0;whiteSpace=wrap;html=1;fontSize=14;" vertex="1" parent="1">
          <mxGeometry x="481.5" y="650" width="120" height="60" as="geometry" />
        </mxCell>
        <mxCell id="FclAPm72DUX-5b0igdBz-25" style="edgeStyle=orthogonalEdgeStyle;rounded=0;orthogonalLoop=1;jettySize=auto;html=1;entryX=0.5;entryY=0;entryDx=0;entryDy=0;fontSize=14;" edge="1" parent="1" source="FclAPm72DUX-5b0igdBz-21" target="FclAPm72DUX-5b0igdBz-24">
          <mxGeometry relative="1" as="geometry">
            <Array as="points">
              <mxPoint x="662" y="780" />
            </Array>
          </mxGeometry>
        </mxCell>
        <mxCell id="FclAPm72DUX-5b0igdBz-33" style="edgeStyle=orthogonalEdgeStyle;rounded=0;orthogonalLoop=1;jettySize=auto;html=1;entryX=0.5;entryY=1;entryDx=0;entryDy=0;fontSize=14;startArrow=none;" edge="1" parent="1" source="FclAPm72DUX-5b0igdBz-34" target="FclAPm72DUX-5b0igdBz-13">
          <mxGeometry relative="1" as="geometry">
            <Array as="points" />
          </mxGeometry>
        </mxCell>
        <mxCell id="FclAPm72DUX-5b0igdBz-21" value="Если текущий месяц не совпадает с А" style="rhombus;whiteSpace=wrap;html=1;fontSize=14;" vertex="1" parent="1">
          <mxGeometry x="430" y="740" width="223" height="80" as="geometry" />
        </mxCell>
        <mxCell id="FclAPm72DUX-5b0igdBz-26" style="edgeStyle=orthogonalEdgeStyle;rounded=0;orthogonalLoop=1;jettySize=auto;html=1;fontSize=14;" edge="1" parent="1" source="FclAPm72DUX-5b0igdBz-24">
          <mxGeometry relative="1" as="geometry">
            <mxPoint x="414.9668731689453" y="778.5000915527344" as="targetPoint" />
          </mxGeometry>
        </mxCell>
        <mxCell id="FclAPm72DUX-5b0igdBz-24" value="Выводим buffer" style="shape=parallelogram;perimeter=parallelogramPerimeter;whiteSpace=wrap;html=1;fixedSize=1;fontSize=14;" vertex="1" parent="1">
          <mxGeometry x="601.5" y="840" width="120" height="60" as="geometry" />
        </mxCell>
        <mxCell id="FclAPm72DUX-5b0igdBz-27" value="True" style="text;strokeColor=none;fillColor=none;html=1;fontSize=24;fontStyle=1;verticalAlign=middle;align=center;" vertex="1" parent="1">
          <mxGeometry x="440" y="420" width="100" height="40" as="geometry" />
        </mxCell>
        <mxCell id="FclAPm72DUX-5b0igdBz-28" value="True" style="text;strokeColor=none;fillColor=none;html=1;fontSize=24;fontStyle=1;verticalAlign=middle;align=center;" vertex="1" parent="1">
          <mxGeometry x="621.5" y="740" width="100" height="40" as="geometry" />
        </mxCell>
        <mxCell id="FclAPm72DUX-5b0igdBz-31" value="False" style="text;strokeColor=none;fillColor=none;html=1;fontSize=24;fontStyle=1;verticalAlign=middle;align=center;" vertex="1" parent="1">
          <mxGeometry x="270" y="410" width="100" height="40" as="geometry" />
        </mxCell>
        <mxCell id="FclAPm72DUX-5b0igdBz-32" value="Конец" style="rounded=1;whiteSpace=wrap;html=1;fontSize=14;" vertex="1" parent="1">
          <mxGeometry x="370" y="930" width="120" height="60" as="geometry" />
        </mxCell>
        <mxCell id="FclAPm72DUX-5b0igdBz-34" value="False" style="text;strokeColor=none;fillColor=none;html=1;fontSize=24;fontStyle=1;verticalAlign=middle;align=center;" vertex="1" parent="1">
          <mxGeometry x="364" y="730" width="100" height="40" as="geometry" />
        </mxCell>
        <mxCell id="FclAPm72DUX-5b0igdBz-36" value="" style="edgeStyle=orthogonalEdgeStyle;rounded=0;orthogonalLoop=1;jettySize=auto;html=1;entryX=0.5;entryY=1;entryDx=0;entryDy=0;fontSize=14;endArrow=none;" edge="1" parent="1" source="FclAPm72DUX-5b0igdBz-21" target="FclAPm72DUX-5b0igdBz-34">
          <mxGeometry relative="1" as="geometry">
            <mxPoint x="430" y="780" as="sourcePoint" />
            <mxPoint x="414" y="500" as="targetPoint" />
            <Array as="points">
              <mxPoint x="414" y="780" />
            </Array>
          </mxGeometry>
        </mxCell>
      </root>
    </mxGraphModel>
  </diagram>
</mxfile>
